<?xml version="1.0" standalone="no"?>
<!DOCTYPE svg PUBLIC "-//W3C//DTD SVG 20010904//EN"
 "http://www.w3.org/TR/2001/REC-SVG-20010904/DTD/svg10.dtd">
<svg version="1.0" xmlns="http://www.w3.org/2000/svg"
 width="500.000000pt" height="500.000000pt" viewBox="0 0 500.000000 500.000000"
 preserveAspectRatio="xMidYMid meet">

<g transform="translate(0.000000,500.000000) scale(0.100000,-0.100000)"
fill="#000000" stroke="none">
<path d="M2345 3884 c-212 -30 -295 -51 -425 -108 -154 -68 -293 -159 -410
-271 -124 -117 -127 -121 -214 -249 -114 -167 -178 -319 -224 -526 -25 -111
-24 -416 2 -525 50 -216 105 -349 212 -513 135 -205 368 -412 578 -511 84 -40
255 -96 351 -116 273 -56 615 -7 880 128 166 84 399 279 504 422 90 123 195
330 229 455 99 355 65 727 -94 1027 -158 300 -368 505 -669 653 -182 89 -348
129 -565 135 -69 2 -138 1 -155 -1z m352 -153 c393 -81 709 -315 907 -673 71
-129 146 -390 146 -512 l0 -40 -75 74 -75 74 0 -284 0 -285 40 -23 40 -22 -26
-58 c-14 -31 -43 -88 -64 -125 -42 -72 -180 -266 -204 -286 -11 -9 -23 0 -58
41 -97 116 -288 384 -310 435 -11 26 -12 24 -18 -35 -8 -68 -32 -105 -77 -116
l-24 -7 32 -57 c18 -31 57 -102 86 -157 30 -55 77 -138 104 -185 27 -47 49
-88 49 -91 0 -3 -55 -36 -122 -72 -312 -168 -616 -199 -940 -97 -90 28 -292
125 -330 158 -16 13 -16 17 4 56 11 22 47 84 78 136 57 94 170 297 170 305 0
3 -13 11 -30 20 -42 21 -63 67 -58 126 1 27 2 49 1 49 -2 0 -50 -71 -154 -225
-45 -67 -219 -285 -228 -285 -11 0 -63 59 -122 140 -50 68 -195 328 -187 335
2 1 22 12 46 24 l42 21 0 282 0 282 -32 -29 c-18 -17 -54 -50 -80 -74 l-48
-45 0 28 c0 67 35 237 67 330 66 190 197 393 344 532 81 77 232 185 314 224
94 46 242 97 334 115 104 21 348 18 458 -4z"/>
<path d="M2447 3633 c-4 -3 -7 -19 -7 -35 0 -36 -29 -65 -74 -73 -59 -12 -56
-47 5 -59 45 -8 66 -31 71 -76 2 -25 9 -36 22 -38 23 -5 36 14 36 55 0 36 14
47 73 57 31 6 37 11 37 31 0 19 -7 26 -27 30 -46 9 -78 29 -81 50 -8 53 -13
65 -31 65 -10 0 -21 -3 -24 -7z"/>
<path d="M2910 3375 c-13 -14 -20 -25 -16 -25 5 0 2 -7 -5 -17 -13 -15 -12
-15 11 -2 32 19 54 39 41 39 -5 0 -13 -4 -16 -10 -3 -5 -11 -10 -17 -10 -6 0
-1 11 12 25 13 14 21 25 18 25 -2 0 -15 -11 -28 -25z"/>
<path d="M2760 3381 c0 -10 39 -46 43 -40 2 2 -7 14 -20 26 -13 12 -23 19 -23
14z"/>
<path d="M1786 3358 c-3 -7 -6 -22 -8 -33 -2 -13 -15 -24 -36 -30 -41 -12 -39
-38 3 -45 24 -4 31 -11 33 -33 4 -35 33 -33 42 3 4 15 14 26 27 28 12 2 27 9
33 17 9 11 5 17 -23 29 -27 11 -36 21 -39 42 -3 29 -25 44 -32 22z"/>
<path d="M2144 3348 l-19 -23 23 19 c21 18 27 26 19 26 -2 0 -12 -10 -23 -22z"/>
<path d="M3116 3354 c-3 -9 -6 -24 -6 -34 0 -12 -10 -21 -31 -25 -38 -9 -36
-39 3 -43 20 -2 28 -10 33 -33 9 -38 39 -36 43 3 3 22 9 27 35 30 36 3 53 38
19 38 -35 0 -52 11 -52 34 0 21 -17 46 -31 46 -4 0 -10 -7 -13 -16z"/>
<path d="M2398 3233 c-38 -24 -49 -58 -46 -144 l3 -74 20 33 c11 19 34 57 50
85 17 28 35 52 40 54 6 2 32 -33 58 -77 26 -43 52 -82 57 -85 18 -11 12 148
-6 173 -35 50 -123 68 -176 35z"/>
<path d="M1966 3202 c-3 -5 1 -9 9 -9 8 0 12 4 9 9 -3 4 -7 8 -9 8 -2 0 -6 -4
-9 -8z"/>
<path d="M3286 3036 c9 -24 -4 -36 -29 -27 -18 7 -23 5 -23 -10 0 -13 3 -15
13 -7 9 7 17 7 28 -2 16 -13 21 -35 6 -25 -5 3 -12 1 -16 -4 -3 -6 3 -15 14
-20 15 -9 18 -7 17 7 -1 11 5 16 18 14 11 -2 15 1 11 7 -3 6 -13 11 -21 11 -8
0 -13 4 -9 10 3 5 12 7 19 4 8 -3 17 -1 21 5 3 7 0 8 -10 5 -11 -5 -14 -2 -9
12 5 16 4 16 -5 4 -9 -13 -11 -13 -11 2 0 9 -4 20 -10 23 -5 3 -7 0 -4 -9z"/>
<path d="M2682 3020 c0 -14 2 -19 5 -12 2 6 2 18 0 25 -3 6 -5 1 -5 -13z"/>
<path d="M1770 3021 c0 -6 -9 -8 -20 -6 -12 2 -20 -2 -20 -10 0 -7 -9 -17 -20
-20 -11 -4 -18 -11 -15 -16 4 -5 2 -9 -4 -9 -5 0 -11 6 -14 13 -3 9 -8 9 -18
-2 -12 -12 -12 -13 0 -6 11 6 13 4 8 -9 -10 -26 10 -56 38 -56 13 0 26 4 29 8
3 5 -8 6 -25 4 -20 -3 -29 0 -29 10 0 8 11 14 28 15 49 2 71 7 65 16 -3 4 3
17 13 28 9 10 14 22 11 26 -4 3 -7 1 -7 -6 0 -7 -4 -10 -10 -6 -5 3 -7 12 -3
20 3 8 2 15 -1 15 -3 0 -6 -4 -6 -9z m5 -30 c3 -5 1 -12 -5 -16 -5 -3 -10 1
-10 9 0 18 6 21 15 7z"/>
<path d="M1653 3013 c4 -3 1 -13 -6 -22 -11 -14 -10 -14 5 -2 16 12 16 31 1
31 -4 0 -3 -3 0 -7z"/>
<path d="M2429 2953 c-6 -16 -19 -51 -30 -79 -12 -31 -47 -83 -87 -129 -126
-145 -145 -183 -144 -289 1 -111 59 -213 145 -255 77 -37 123 -20 50 18 -80
41 -123 113 -123 206 0 78 18 113 108 208 43 46 89 106 102 133 l24 48 18 -39
c9 -22 18 -61 18 -87 0 -60 8 -78 32 -78 13 0 24 12 35 37 32 78 -10 221 -89
302 -37 38 -46 39 -59 4z"/>
<path d="M1388 2893 c-2 -19 -10 -29 -28 -33 -36 -9 -38 -38 -3 -42 24 -2 28
-8 31 -36 4 -43 34 -41 42 3 4 24 11 31 35 35 16 3 28 8 27 13 -1 4 -2 11 -2
16 0 5 -12 11 -27 13 -19 2 -29 10 -33 28 -8 36 -38 38 -42 3z"/>
<path d="M3505 2905 c-3 -8 -7 -22 -10 -30 -2 -8 -16 -15 -30 -15 -37 0 -34
-36 4 -43 23 -5 30 -12 33 -34 4 -37 32 -37 36 -1 3 22 10 30 35 36 41 10 42
35 2 42 -24 4 -31 11 -33 33 -4 29 -29 38 -37 12z"/>
<path d="M1615 2811 c-22 -11 -51 -36 -65 -57 -25 -37 -25 -40 -28 -291 -2
-139 0 -253 3 -253 3 0 22 12 41 28 l34 27 0 203 c0 171 3 207 16 228 22 32
80 57 116 49 42 -10 78 -63 78 -116 0 -66 28 -91 69 -63 43 30 21 165 -36 216
-53 49 -158 62 -228 29z"/>
<path d="M3155 2818 c-38 -13 -90 -62 -105 -98 -6 -14 -10 -56 -8 -91 l3 -64
35 0 c35 0 35 1 41 51 8 63 17 82 31 63 6 -10 7 -6 3 11 -5 21 0 28 29 44 32
17 39 18 72 5 21 -8 39 -21 41 -29 4 -13 3 -13 -6 0 -7 10 -11 11 -11 3 0 -7
9 -17 20 -23 17 -9 19 -8 13 7 -3 10 -3 15 1 12 16 -14 20 -64 23 -254 l4
-200 34 -22 c19 -13 37 -23 40 -23 3 0 5 108 5 240 0 262 -4 283 -56 331 -51
46 -138 62 -209 37z"/>
<path d="M2634 2673 c-14 -44 -35 -84 -48 -89 -12 -5 -12 -12 1 -52 9 -26 17
-53 19 -59 6 -22 31 -3 46 35 l14 37 17 -32 c21 -40 22 -128 2 -177 -22 -51
-77 -109 -125 -131 -22 -10 -40 -22 -40 -26 0 -38 103 2 167 66 43 43 55 65
74 125 33 109 12 203 -63 283 -39 41 -56 46 -64 20z"/>
<path d="M2033 2245 l-41 -75 89 0 89 0 -34 53 c-18 28 -36 62 -40 75 -4 12
-10 22 -14 22 -4 0 -26 -34 -49 -75z"/>
<path d="M2830 2273 c-13 -26 -32 -60 -42 -75 l-19 -28 86 0 86 0 -37 68 c-20
37 -40 71 -44 75 -4 5 -18 -13 -30 -40z"/>
<path d="M2056 2067 c-29 -21 -16 -51 24 -57 31 -5 37 -11 71 -81 24 -50 52
-88 80 -112 23 -21 46 -37 50 -37 4 0 19 -4 33 -10 l25 -9 -80 -168 c-131
-274 -131 -273 -118 -289 31 -38 48 -18 137 164 48 97 96 196 105 220 9 23 24
42 32 42 13 0 15 -30 15 -219 0 -231 3 -248 47 -239 17 3 18 22 23 233 4 193
7 230 20 230 9 0 48 -74 107 -199 109 -235 117 -248 145 -244 47 7 42 27 -61
240 -56 114 -101 214 -101 222 0 8 13 17 29 21 63 14 171 145 171 207 0 14 8
18 33 18 54 0 79 47 38 70 -31 16 -802 14 -825 -3z m673 -81 c9 -11 10 -20 1
-35 -10 -19 -20 -21 -115 -21 -95 0 -105 2 -115 21 -21 39 2 49 115 49 77 0
106 -4 114 -14z"/>
</g>
</svg>
