<?xml version="1.0" standalone="no"?>
<!DOCTYPE svg PUBLIC "-//W3C//DTD SVG 20010904//EN"
 "http://www.w3.org/TR/2001/REC-SVG-20010904/DTD/svg10.dtd">
<svg version="1.0" xmlns="http://www.w3.org/2000/svg"
 width="1024.000000pt" height="1024.000000pt" viewBox="0 0 1024.000000 1024.000000"
 preserveAspectRatio="xMidYMid meet">

<g transform="translate(0.000000,1024.000000) scale(0.100000,-0.100000)"
fill="#000000" stroke="none">
<path d="M4840 7964 c-14 -2 -65 -9 -115 -15 -816 -99 -1553 -538 -2029 -1209
-213 -300 -342 -560 -435 -873 -237 -804 -121 -1620 336 -2359 186 -300 484
-616 790 -834 366 -262 780 -434 1238 -515 174 -30 529 -37 720 -14 384 46
742 158 1057 330 694 379 1212 1009 1432 1740 94 310 129 540 129 835 0 394
-61 708 -209 1072 -240 591 -693 1117 -1238 1437 -339 199 -689 324 -1086 386
-98 16 -524 29 -590 19z m536 -300 c598 -78 1211 -406 1624 -869 176 -198 288
-361 404 -593 93 -185 161 -365 210 -559 36 -142 79 -493 61 -493 -4 0 -77 68
-161 152 l-154 152 0 -586 c0 -545 1 -586 18 -600 9 -8 48 -32 85 -52 38 -21
66 -43 64 -49 -40 -102 -82 -195 -92 -207 -7 -8 -31 -52 -54 -97 -56 -113
-162 -283 -235 -377 -34 -43 -68 -88 -76 -100 -8 -13 -48 -58 -87 -101 l-73
-78 -21 19 c-27 25 -251 306 -361 454 -81 110 -255 369 -345 516 l-43 69 0
-91 c0 -163 -49 -256 -150 -285 -25 -7 -46 -14 -48 -15 -7 -5 263 -499 388
-709 27 -44 75 -129 109 -189 l60 -109 -60 -38 c-317 -206 -609 -320 -999
-391 -110 -20 -156 -23 -390 -23 -286 1 -340 7 -581 66 -195 47 -336 97 -504
178 -157 76 -330 176 -354 205 -10 12 -1 33 47 113 107 175 192 323 354 612
l158 285 -47 18 c-27 10 -60 29 -76 43 -56 53 -62 70 -67 212 l-5 134 -90
-143 c-108 -173 -269 -406 -378 -548 -118 -154 -308 -381 -316 -378 -18 7
-145 156 -228 265 -134 177 -237 357 -348 602 -42 95 -48 121 -24 121 5 0 43
19 84 42 l75 42 -2 578 c-1 318 -4 578 -6 578 -2 0 -74 -68 -159 -151 -85 -82
-157 -148 -160 -145 -7 7 15 212 39 356 140 864 825 1686 1678 2016 250 96
499 150 770 168 97 6 352 -5 466 -20z"/>
<path d="M5010 7440 c-15 -15 -20 -33 -20 -70 0 -93 -35 -127 -154 -149 -33
-6 -60 -12 -61 -13 -43 -54 -10 -108 67 -108 43 -1 111 -32 132 -61 11 -16 16
-45 16 -91 0 -58 3 -69 22 -82 31 -22 64 -20 88 4 16 16 20 33 20 83 0 95 32
128 140 142 71 9 100 27 100 64 0 39 -24 56 -100 71 -111 21 -140 49 -140 139
0 79 -62 119 -110 71z"/>
<path d="M4197 7223 c-3 -5 23 -8 58 -8 35 0 61 3 58 8 -2 4 -28 7 -58 7 -30
0 -56 -3 -58 -7z"/>
<path d="M5888 7223 c7 -3 16 -2 19 1 4 3 -2 6 -13 5 -11 0 -14 -3 -6 -6z"/>
<path d="M6072 7025 c0 -16 2 -22 5 -12 2 9 2 23 0 30 -3 6 -5 -1 -5 -18z"/>
<path d="M5645 6920 c3 -5 8 -10 11 -10 2 0 4 5 4 10 0 6 -5 10 -11 10 -5 0
-7 -4 -4 -10z"/>
<path d="M4058 6895 c6 -11 23 -31 39 -45 l28 -25 -20 25 c-11 13 -28 33 -39
45 -18 19 -18 19 -8 0z"/>
<path d="M3657 6882 c-10 -10 -17 -34 -17 -54 0 -45 -25 -68 -82 -75 -52 -7
-68 -18 -68 -49 0 -29 27 -44 78 -44 49 0 72 -24 72 -73 0 -28 6 -40 24 -52
36 -24 66 -5 66 41 0 54 14 71 65 78 32 5 50 14 61 31 24 37 5 61 -55 69 -58
8 -71 23 -71 83 0 60 -38 83 -73 45z"/>
<path d="M6386 6878 c-9 -12 -16 -39 -16 -59 0 -43 -15 -58 -67 -66 -47 -7
-63 -19 -63 -47 0 -33 19 -46 66 -46 47 0 59 -10 69 -60 13 -66 15 -70 45 -70
34 0 50 23 50 72 0 46 15 58 71 58 50 0 79 18 79 49 0 28 -21 41 -66 41 -56 0
-82 23 -87 77 -7 70 -49 97 -81 51z"/>
<path d="M4370 6830 c-9 -6 -10 -10 -3 -10 6 0 15 5 18 10 8 12 4 12 -15 0z"/>
<path d="M5933 6815 c0 -7 6 -11 14 -8 7 3 13 6 13 8 0 2 -6 5 -13 8 -8 3 -14
-1 -14 -8z"/>
<path d="M4203 6793 c9 -2 23 -2 30 0 6 3 -1 5 -18 5 -16 0 -22 -2 -12 -5z"/>
<path d="M5828 6793 c7 -3 16 -2 19 1 4 3 -2 6 -13 5 -11 0 -14 -3 -6 -6z"/>
<path d="M4960 6650 c-65 -22 -130 -86 -148 -147 -13 -45 -17 -343 -4 -343 4
0 39 52 77 115 126 208 149 240 169 240 14 0 48 -47 126 -175 59 -96 112 -176
119 -178 15 -5 15 278 0 332 -16 57 -90 131 -155 156 -67 25 -113 25 -184 0z"/>
<path d="M4158 6623 c7 -3 16 -2 19 1 4 3 -2 6 -13 5 -11 0 -14 -3 -6 -6z"/>
<path d="M5908 6623 c7 -3 16 -2 19 1 4 3 -2 6 -13 5 -11 0 -14 -3 -6 -6z"/>
<path d="M4110 6610 c-8 -5 -10 -10 -5 -10 6 0 17 5 25 10 8 5 11 10 5 10 -5
0 -17 -5 -25 -10z"/>
<path d="M3984 6528 l-29 -33 33 29 c30 28 37 36 29 36 -2 0 -16 -15 -33 -32z"/>
<path d="M5580 6535 c-7 -9 -8 -15 -2 -15 5 0 12 7 16 15 3 8 4 15 2 15 -2 0
-9 -7 -16 -15z"/>
<path d="M5540 6479 c-7 -11 -10 -23 -7 -25 2 -2 9 7 15 21 14 30 7 33 -8 4z"/>
<path d="M4601 6384 c0 -11 3 -14 6 -6 3 7 2 16 -1 19 -3 4 -6 -2 -5 -13z"/>
<path d="M6207 6359 c4 -13 8 -18 11 -10 2 7 -1 18 -6 23 -8 8 -9 4 -5 -13z"/>
<path d="M6670 6351 c20 -4 42 -11 50 -15 8 -4 6 0 -4 8 -11 9 -34 15 -50 15
-31 -1 -31 -1 4 -8z"/>
<path d="M6224 6070 c0 -140 2 -198 3 -127 2 70 2 184 0 255 -1 70 -3 12 -3
-128z"/>
<path d="M4614 6115 c0 -93 2 -133 3 -88 2 45 2 122 0 170 -1 48 -3 12 -3 -82z"/>
<path d="M3272 6190 c0 -14 2 -19 5 -12 2 6 2 18 0 25 -3 6 -5 1 -5 -13z"/>
<path d="M3681 6174 c0 -11 3 -14 6 -6 3 7 2 16 -1 19 -3 4 -6 -2 -5 -13z"/>
<path d="M6411 6149 c-1 -42 16 -98 36 -119 11 -11 11 -6 -2 20 -10 19 -21 57
-25 85 -7 43 -8 45 -9 14z"/>
<path d="M3480 6100 c0 -54 -2 -60 -21 -60 -14 0 -19 -5 -17 -17 3 -15 15 -18
68 -19 98 -2 96 -1 75 -24 -17 -18 -17 -20 -2 -14 9 3 17 9 17 14 0 4 10 12
23 19 l22 12 -22 -5 c-22 -4 -23 -2 -23 75 l0 79 -60 0 -60 0 0 -60z"/>
<path d="M6640 6140 c0 -17 7 -20 40 -20 33 0 40 3 40 20 0 17 -7 20 -40 20
-33 0 -40 -3 -40 -20z"/>
<path d="M3681 6104 c0 -11 3 -14 6 -6 3 7 2 16 -1 19 -3 4 -6 -2 -5 -13z"/>
<path d="M4992 6087 c-6 -7 -25 -53 -43 -103 -56 -159 -115 -254 -243 -394
-220 -239 -278 -357 -277 -565 1 -231 135 -440 346 -541 73 -36 113 -42 133
-22 28 28 13 47 -63 82 -138 64 -219 165 -251 314 -27 129 -11 240 49 341 18
29 95 119 171 200 143 149 208 237 226 300 17 60 26 68 43 35 36 -72 59 -163
64 -256 5 -83 9 -100 28 -118 18 -17 27 -19 48 -11 70 27 98 202 58 361 -28
111 -61 181 -128 268 -85 111 -133 143 -161 109z"/>
<path d="M3654 6062 c3 -5 0 -12 -6 -15 -7 -2 -10 -7 -7 -11 3 -4 12 0 18 8 9
11 9 16 0 22 -7 4 -9 3 -5 -4z"/>
<path d="M6487 5989 c12 -12 25 -20 28 -17 3 3 -7 13 -22 23 l-28 17 22 -23z"/>
<path d="M2863 5983 c-7 -2 -15 -27 -19 -54 -4 -27 -11 -52 -16 -55 -5 -3 -30
-9 -56 -12 -39 -6 -48 -12 -56 -35 -14 -37 10 -59 71 -67 46 -5 48 -6 51 -40
4 -59 11 -79 32 -90 32 -17 60 4 60 45 0 65 13 82 70 89 41 5 53 12 62 31 15
33 -12 65 -56 65 -49 0 -76 24 -76 69 0 52 -25 72 -67 54z"/>
<path d="M7182 5978 c-7 -7 -12 -27 -12 -45 0 -20 -8 -41 -20 -53 -12 -12 -33
-20 -53 -20 -38 0 -57 -15 -57 -45 0 -32 31 -55 73 -55 42 0 57 -19 57 -72 0
-40 15 -58 47 -58 27 0 43 27 43 73 0 41 12 53 65 62 50 9 65 21 65 51 0 26
-26 44 -65 44 -45 0 -65 17 -65 56 0 19 -5 44 -10 55 -12 21 -50 25 -68 7z"/>
<path d="M3425 5951 c19 -9 113 -15 104 -7 -2 2 -31 6 -64 10 -40 4 -53 3 -40
-3z"/>
<path d="M6552 5949 c7 -5 36 -8 63 -8 60 1 50 6 -23 12 -32 2 -48 1 -40 -4z"/>
<path d="M5492 5850 c0 -19 2 -27 5 -17 2 9 2 25 0 35 -3 9 -5 1 -5 -18z"/>
<path d="M3391 5794 c-114 -31 -195 -94 -246 -194 -43 -86 -46 -127 -43 -622
l3 -468 88 62 87 61 0 414 c0 451 0 452 58 509 43 44 99 68 157 68 55 1 118
-21 108 -37 -4 -6 -1 -7 6 -2 17 10 69 -40 92 -90 13 -29 19 -64 19 -127 0
-84 1 -87 31 -112 34 -29 50 -32 82 -14 42 22 46 38 47 166 0 111 -2 128 -25
176 -37 79 -97 141 -168 176 -102 50 -197 61 -296 34z"/>
<path d="M6530 5800 c-69 -15 -164 -66 -204 -110 -19 -22 -49 -66 -65 -98 -27
-53 -30 -69 -33 -178 -2 -102 0 -125 15 -147 23 -35 80 -37 123 -4 28 21 29
26 31 104 2 132 31 191 115 234 46 24 128 37 128 21 0 -6 7 -9 15 -6 24 9 102
-34 133 -74 16 -20 34 -52 40 -71 14 -39 15 -261 5 -604 -6 -206 -8 -226 -22
-214 -9 8 -23 17 -31 21 -37 18 159 -124 218 -158 10 -6 12 88 10 496 l-3 503
-29 63 c-38 82 -132 172 -211 201 -65 25 -171 34 -235 21z"/>
<path d="M6222 5770 c0 -19 2 -27 5 -17 2 9 2 25 0 35 -3 9 -5 1 -5 -18z"/>
<path d="M6221 5654 c0 -11 3 -14 6 -6 3 7 2 16 -1 19 -3 4 -6 -2 -5 -13z"/>
<path d="M6223 5585 c0 -22 2 -30 4 -17 2 12 2 30 0 40 -3 9 -5 -1 -4 -23z"/>
<path d="M3882 5580 c0 -14 2 -19 5 -12 2 6 2 18 0 25 -3 6 -5 1 -5 -13z"/>
<path d="M5391 5479 c-6 -18 -11 -39 -11 -49 0 -32 -52 -120 -81 -137 -33 -20
-35 -32 -14 -73 8 -16 23 -59 33 -97 14 -55 22 -69 39 -71 37 -5 67 39 87 131
9 39 22 34 50 -20 65 -131 59 -283 -17 -427 -45 -86 -117 -153 -221 -205 -90
-45 -107 -62 -89 -90 16 -25 47 -24 120 5 250 100 417 358 400 621 -10 150
-71 284 -178 394 -60 61 -101 67 -118 18z"/>
<path d="M4166 4604 c-48 -91 -86 -166 -85 -167 14 -7 381 10 371 17 -23 14
-127 179 -157 249 -16 37 -32 67 -35 67 -3 0 -45 -75 -94 -166z"/>
<path d="M5800 4672 c-27 -54 -70 -127 -95 -163 l-45 -64 178 -5 c97 -3 183
-9 190 -13 19 -13 16 -5 -42 95 -29 51 -72 128 -94 171 l-41 77 -51 -98z"/>
<path d="M6710 4726 c0 -2 8 -10 18 -17 15 -13 16 -12 3 4 -13 16 -21 21 -21
13z"/>
<path d="M4199 4231 c-34 -34 -37 -69 -9 -99 17 -18 32 -22 80 -22 35 0 62 -5
66 -12 4 -7 20 -47 34 -89 62 -177 178 -308 340 -382 36 -16 67 -31 68 -32 2
-2 -3 -16 -12 -32 -9 -15 -102 -208 -207 -428 -197 -411 -210 -448 -175 -483
21 -21 91 -22 110 -2 13 12 199 398 391 806 40 86 44 91 69 87 l26 -5 0 -447
c0 -502 -2 -491 68 -491 83 0 82 -8 82 504 l0 446 28 0 c32 0 13 36 244 -460
175 -374 178 -381 178 -390 0 -5 12 -22 26 -39 34 -41 75 -42 115 -2 16 16 29
38 29 49 0 10 -24 70 -54 133 -30 63 -122 258 -205 433 -83 175 -150 320 -149
322 2 1 25 12 51 23 102 44 202 127 267 222 45 65 66 111 90 194 l17 60 72 5
c61 4 76 9 92 29 27 33 24 68 -10 102 l-29 29 -832 0 -832 0 -29 -29z m1379
-151 c30 -28 29 -74 -3 -105 -24 -25 -26 -25 -215 -25 l-192 0 -29 29 c-34 35
-36 59 -8 95 l20 26 203 0 c190 0 204 -1 224 -20z"/>
</g>
</svg>
